<?xml version="1.0" encoding="utf-8"?>
<!-- Generator: Adobe Illustrator 27.0.0, SVG Export Plug-In . SVG Version: 6.00 Build 0)  -->
<svg version="1.1" id="Layer_1" xmlns="http://www.w3.org/2000/svg" xmlns:xlink="http://www.w3.org/1999/xlink" x="0px" y="0px"
	 viewBox="0 0 200.28 200.89" style="enable-background:new 0 0 200.28 200.89;" xml:space="preserve">
<style type="text/css">
	.st0{fill:#002D3D;}
	.st1{fill:#F3F3F3;}
	.st2{fill:#2BAAE2;}
	.st3{fill:#1E96C0;}
	.st4{fill:#F5FBFD;}
	.st5{fill:#D2EEF7;}
	.st6{fill:#010101;}
	.st7{fill:#FFFFFF;}
	.st8{fill:#333333;}
	.st9{fill:#E6E6E5;}
	.st10{fill:#DCDDDF;}
	.st11{fill:#DAF0F3;}
</style>
<path class="st0" d="M16.54,137.81c-0.35,0-0.69-0.14-0.95-0.38L3.85,126.19c-0.51-0.49-0.56-1.29-0.12-1.85l12.2-15.28
	c0.48-0.59,1.34-0.69,1.94-0.21c0.59,0.48,0.69,1.34,0.21,1.94l0,0l-11.41,14.3l10.83,10.38c0.55,0.52,0.58,1.38,0.06,1.93
	c-0.26,0.28-0.63,0.43-1.01,0.43V137.81z"/>
<path class="st0" d="M22.85,134.87c-0.12-0.75-0.81-1.26-1.56-1.15l-0.78,0.14c-1.63,0.32-3.2,0.88-4.67,1.67
	c-0.82,0.43-1.54,1.02-2.13,1.73c-0.5,0.63-0.8,1.4-0.86,2.2c-0.09,0.91-0.07,1.83,0.06,2.74l0.05,0.29
	c0.07,0.38,0.19,0.75,0.35,1.1c-0.26,0.48-0.49,0.97-0.67,1.48c-0.06,0.15-0.11,0.3-0.17,0.46c-0.32,0.95-0.51,1.93-0.54,2.93
	c-0.01,0.26-0.01,0.52,0,0.78c0.02,0.97,0.17,1.93,0.44,2.86c0,0.1,0.06,0.2,0.1,0.29c0.62,1.89,1.58,3.65,2.83,5.19
	c0.51,0.56,1.38,0.6,1.94,0.09c0.5-0.46,0.59-1.21,0.22-1.78c-5.14-6.58-1.73-11.04-1.44-11.38l0,0c0.03-0.04,0.07-0.08,0.1-0.12
	l0.05-0.09l0.06-0.1c0-0.04,0-0.08,0-0.12c0.02-0.04,0.03-0.07,0.04-0.11v-0.11c0-0.04,0-0.08,0-0.12c0-0.07,0-0.13,0-0.2
	c0-0.05,0-0.1,0-0.14l0,0v-0.1c0,0,0-0.09,0-0.13c-0.07-0.19-0.19-0.37-0.34-0.51l-0.09-0.08l0,0c-0.09-0.15-0.41-0.86-0.25-2.84
	c0.07-0.8,0.99-1.53,2.21-2.1c1.24-0.56,2.56-0.96,3.91-1.17h0.1C22.53,136.32,23,135.61,22.85,134.87z"/>
<path class="st0" d="M15.24,143.43c0,0.07,0,0.13,0,0.2c0,0.04,0,0.08,0,0.12v0.11v0.12c0,0.04,0,0.08,0,0.11l-0.06,0.11l-0.05,0.09
	l-0.1,0.11l0,0c-0.24,0.27-0.58,0.43-0.94,0.45c-0.44,0.03-0.87,0.09-1.3,0.18c-0.44,0.08-0.88,0.21-1.3,0.36
	c-0.45,0.14-0.86,0.38-1.2,0.71c-0.14,0.13-0.2,0.32-0.18,0.51c0.03,0.37,0.14,0.74,0.34,1.05l0.07,0.12
	c0.13,0.19,0.27,0.37,0.43,0.53c0.33,0.34,0.71,0.63,1.12,0.86c0.31,0.19,0.63,0.36,0.96,0.5c0.71,0.27,1.06,1.07,0.78,1.78
	c-0.2,0.5-0.67,0.85-1.21,0.88h-0.06c-0.17,0-0.33-0.03-0.48-0.09c0,0-0.3-0.12-0.67-0.3c-0.73-0.37-1.42-0.83-2.03-1.37
	c-0.2-0.19-0.41-0.39-0.6-0.61c-0.45-0.51-0.8-1.09-1.05-1.73c-0.1-0.24-0.18-0.49-0.23-0.74c-0.05-0.24-0.09-0.49-0.1-0.73
	c-0.07-0.92,0.25-1.83,0.86-2.52c1.04-1,2.35-1.66,3.77-1.89c0.4-0.09,0.77-0.15,1.07-0.19c0.3-0.04,0.75-0.08,0.86-0.09
	c0.26-0.02,0.51,0.04,0.73,0.16c0.08,0.04,0.15,0.08,0.22,0.14l0,0c0.03,0.03,0.06,0.06,0.09,0.09c0.15,0.14,0.27,0.31,0.34,0.51
	c0,0.04,0,0.08,0,0.13s0,0.09,0,0.13C15.31,143.29,15.24,143.39,15.24,143.43z"/>
<path class="st0" d="M34.73,150.66c-0.08,0.36-0.19,0.7-0.35,1.03c-0.14,0.3-0.3,0.59-0.48,0.86c-0.24,0.37-0.51,0.71-0.75,1.02
	l-0.39,0.51c-0.72,0.97-1.49,1.9-2.33,2.78c-1.68,1.75-3.59,3.26-5.67,4.5c-1.13,0.74-2.4,1.22-3.73,1.42
	c-0.24,0.01-0.48,0.01-0.72,0c-0.92-0.03-1.84-0.16-2.74-0.38c-0.5-0.12-1-0.21-1.5-0.28c-1.52-0.09-3.01-0.48-4.38-1.14
	c-2.48-1.45-4.69-3.31-6.54-5.52c-0.88-0.81-1.4-1.95-1.44-3.15c0.08-1.07,0.62-2.05,1.49-2.68c0.75-0.51,1.54-0.95,2.37-1.31
	l0.13-0.05c0.57-0.27,1.19-0.43,1.82-0.48c0.45,0,0.88,0.22,1.14,0.6c0,0,0,0.09,0.07,0.12c0.11,0.2,0.16,0.43,0.16,0.66
	c0,0.75-0.61,1.37-1.36,1.37c-0.11,0.01-0.22,0.04-0.33,0.09l-0.23,0.09c-0.74,0.29-1.44,0.66-2.1,1.1
	c-0.22,0.14-0.37,0.36-0.42,0.61c0,0.36,0.53,0.96,0.73,1.18c1.63,1.97,3.59,3.64,5.78,4.95c1.09,0.51,2.26,0.8,3.46,0.86
	c0.58,0.08,1.16,0.19,1.73,0.32c0.84,0.24,1.72,0.34,2.59,0.29c0.93-0.17,1.81-0.52,2.59-1.05c1.87-1.11,3.58-2.47,5.09-4.04
	c0.75-0.78,1.45-1.61,2.09-2.49c0.13-0.19,0.29-0.38,0.44-0.58c0.29-0.36,0.56-0.74,0.81-1.13c0.12-0.18,0.2-0.38,0.25-0.6
	c0.03-0.12,0.07-0.24,0.13-0.35c0.24-0.72,1.01-1.1,1.73-0.86c0.72,0.24,1.1,1.01,0.86,1.73L34.73,150.66z"/>
<path class="st0" d="M113.57,76.76l-1.08,2.52l-0.86-0.37c-23.29-9.7-45.71-8.97-60.53-6.61c-9.03,1.39-17.87,3.84-26.32,7.31
	l-0.86,0.39l-1.18-2.48c0.11-0.05,0.79-0.36,1.97-0.86c8.33-3.31,17.01-5.68,25.87-7.05c14.94-2.39,37.48-3.16,61.03,6.35
	C112.26,76.21,112.94,76.48,113.57,76.76z"/>
<path class="st1" d="M32.17,149.76c-0.06,0.11-0.1,0.23-0.13,0.35c-0.05,0.21-0.13,0.41-0.25,0.6c-0.25,0.39-0.52,0.77-0.81,1.13
	c-0.16,0.2-0.31,0.39-0.44,0.58c-0.64,0.88-1.34,1.71-2.09,2.49c-1.51,1.57-3.22,2.93-5.09,4.04c-0.78,0.52-1.67,0.88-2.59,1.05
	c-0.87,0.04-1.75-0.05-2.59-0.29c-0.57-0.13-1.15-0.24-1.73-0.32c-1.2-0.06-2.37-0.36-3.46-0.86c-2.2-1.31-4.15-2.98-5.78-4.95
	c-0.21-0.22-0.74-0.86-0.73-1.18c0.05-0.25,0.21-0.47,0.42-0.61c0.66-0.44,1.36-0.81,2.1-1.1l0.23-0.09c0.62,0.54,1.3,1,2.03,1.37
	c0.37,0.18,0.63,0.29,0.67,0.3c0.15,0.06,0.32,0.09,0.48,0.09h0.06c0.62,1.89,1.58,3.65,2.83,5.19c0.51,0.56,1.38,0.6,1.94,0.09
	c0.5-0.46,0.59-1.21,0.22-1.78c-5.14-6.58-1.73-11.04-1.44-11.38l0,0c0.03-0.04,0.07-0.08,0.1-0.12l0.05-0.09l0.06-0.1
	c0-0.04,0-0.08,0-0.12c0.02-0.04,0.03-0.07,0.04-0.11v-0.11c0-0.04,0-0.08,0-0.12c0-0.07,0-0.13,0-0.2c0-0.05,0-0.1,0-0.14l0,0v-0.1
	c0,0,0-0.09,0-0.13c-0.07-0.19-0.19-0.37-0.34-0.51l-0.09-0.08l0,0c-0.09-0.15-0.41-0.86-0.25-2.84c0.07-0.8,0.99-1.53,2.21-2.1
	c1.24-0.56,2.56-0.96,3.91-1.17h0.1C24.5,141.43,28,145.93,32.17,149.76z"/>
<path class="st0" d="M118.23,112.13c0.01,6.58-1.26,13.1-3.73,19.2c-0.35,0.86-0.73,1.73-1.13,2.59
	c-12.02,25.61-42.53,36.64-68.14,24.62c-3.77-1.77-7.31-3.99-10.54-6.62l-0.29-0.23c-0.62-0.51-1.23-1.03-1.82-1.57
	c-0.13-0.11-0.26-0.22-0.39-0.35c-4.17-3.84-7.68-8.35-10.38-13.34c-0.46-0.86-0.86-1.73-1.29-2.59c-3.17-6.72-4.82-14.06-4.84-21.5
	v-0.23c0-1.1,0.03-2.19,0.1-3.27c0.52-8.24,3.02-16.23,7.31-23.29c0.1-0.18,0.22-0.36,0.33-0.54l2.33,1.45
	c-0.49,0.78-0.95,1.57-1.39,2.38c-12.84,23.53-4.17,53.01,19.36,65.85s53.01,4.17,65.85-19.36c7.54-13.81,7.91-30.42,1-44.56
	c-0.31-0.63-0.63-1.25-0.97-1.88l2.4-1.31l0.35,0.66C116.22,95.61,118.23,103.81,118.23,112.13z"/>
<path class="st0" d="M114.4,78.04c0.09-6.18-1.95-12.58-4.17-18.57l-0.29-0.8c-1.64-4.49-3.07-8.36-6.87-12.04
	c-3.22-3.08-6.94-5.59-11.02-7.4c-3.76-1.67-7.7-2.89-11.75-3.62c-4.71-0.86-9.49-1.3-14.28-1.33c-1.9,0-3.84,0-5.75,0.11
	c-11.08,0.58-20.65,4.6-26.93,11.34c-5.33,5.72-7.84,13.04-9.43,18.77c-2.28,8.22-2.59,15.14-0.86,21.07
	c0.13,0.45,0.27,0.86,0.42,1.34c0.25,0.67,0.53,1.32,0.86,1.95c1.5,2.94,4.01,5.53,7.41,5.53h0.2c2.2-0.06,4.05-1.25,5.68-2.29
	l0.3-0.18c16.38-10.43,38.49-11.52,56.35-2.78c0.47,0.22,0.93,0.46,1.38,0.69c1.9,1.03,3.89,1.86,5.95,2.49
	c3.29,0.86,6,0.63,8.05-0.81c0.31-0.22,0.6-0.47,0.86-0.73c0.74-0.74,1.34-1.59,1.79-2.53c1.31-2.68,1.78-6.2,2.04-9.74
	c0-0.15,0-0.29,0-0.45h-1.37L114.4,78.04z M108.09,89.28c-1.37,0.96-3.25,1.09-5.75,0.41c-1.88-0.59-3.7-1.37-5.43-2.32l-1.41-0.71
	c-18.69-9.16-41.88-8.01-59.04,2.92l-0.3,0.19c-1.46,0.93-2.84,1.82-4.32,1.86h-0.1c-2.72,0-4.76-3.02-5.67-5.64
	c-0.72-2.07-1.16-4.22-1.31-6.4c-0.07-0.96-0.1-1.95-0.08-2.96c0.14-3.87,0.76-7.7,1.84-11.41c1.61-5.78,3.91-12.38,8.8-17.64
	c5.71-6.13,14.84-9.94,25.07-10.47c1.49-0.08,2.99-0.12,4.48-0.12h1.09c10.06,0.13,18.23,1.67,24.94,4.71
	c3.79,1.7,7.26,4.04,10.25,6.92c3.34,3.23,4.6,6.67,6.19,11.01l0.3,0.81c1.87,5.06,3.61,10.38,3.94,15.56
	c0,0.69,0.06,1.37,0.05,2.06l0,0c0,0.1,0,0.19,0,0.28l-0.05,0.6C111.21,83.34,110.53,87.56,108.09,89.28L108.09,89.28z"/>
<path class="st2" d="M111.61,75.95c-23.54-9.51-46.09-8.73-61.03-6.35c-8.85,1.37-17.51,3.74-25.84,7.05
	c0.14-3.87,0.76-7.7,1.84-11.41c1.61-5.78,3.91-12.38,8.8-17.64c5.71-6.13,14.84-9.94,25.07-10.47c1.49-0.08,2.99-0.12,4.48-0.12
	h1.09c10.06,0.13,18.23,1.67,24.94,4.71c3.79,1.7,7.26,4.04,10.25,6.92c3.34,3.23,4.6,6.67,6.19,11.01l0.3,0.81
	C109.54,65.52,111.27,70.82,111.61,75.95z"/>
<path class="st3" d="M111.6,78.91c-0.35,4.43-1.07,8.65-3.51,10.38c-1.37,0.96-3.25,1.09-5.75,0.41c-1.88-0.59-3.7-1.37-5.43-2.32
	l-1.41-0.71c-18.69-9.16-41.88-8.01-59.04,2.92l-0.3,0.19c-1.46,0.93-2.84,1.82-4.32,1.86h-0.1c-2.72,0-4.76-3.02-5.67-5.64
	c-0.72-2.07-1.16-4.22-1.31-6.4c8.45-3.47,17.29-5.92,26.32-7.31C65.9,69.95,88.32,69.21,111.6,78.91z"/>
<path class="st4" d="M110.56,90.79c-0.27,0.27-0.56,0.51-0.86,0.73c-2.05,1.44-4.76,1.73-8.05,0.81c-2.06-0.64-4.05-1.48-5.94-2.52
	c-0.46-0.23-0.92-0.47-1.38-0.69c-17.86-8.74-39.97-7.65-56.35,2.78l-0.3,0.18c-1.63,1.05-3.46,2.23-5.68,2.29h-0.2
	c-3.4,0-5.91-2.59-7.41-5.53c-12.84,23.53-4.17,53.01,19.36,65.85s53.01,4.17,65.85-19.36c7.54-13.81,7.91-30.42,1-44.56
	L110.56,90.79z M67.12,133.93c-13.61,0-24.65-11.04-24.65-24.65S53.5,84.63,67.12,84.63c13.61,0,24.65,11.04,24.65,24.65
	S80.73,133.93,67.12,133.93L67.12,133.93z"/>
<path class="st5" d="M91.8,109.28c0,13.61-11.03,24.66-24.64,24.66c-13.61,0-24.66-11.03-24.66-24.64
	c0-13.6,11.01-24.64,24.62-24.66c13.61-0.02,24.67,11,24.69,24.62C91.8,109.26,91.8,109.27,91.8,109.28z"/>
<circle class="st6" cx="67.15" cy="109.29" r="15.39"/>
<circle class="st7" cx="75.05" cy="96.59" r="8.87"/>
<path class="st6" d="M142.11,132.39c-0.01,0.75-0.63,1.35-1.37,1.35l0,0c-0.42-0.01-0.83-0.05-1.24-0.14
	c-0.45-0.09-0.9-0.23-1.32-0.41c-1.27-0.56-2.4-1.39-3.33-2.42c-0.56-0.59-1.05-1.24-1.47-1.94c-0.35-0.67-0.09-1.5,0.59-1.85
	c0.63-0.33,1.41-0.12,1.79,0.48c0.05,0.09,0.11,0.18,0.17,0.27c0.78,1.19,1.84,2.16,3.09,2.84c0.42,0.2,0.87,0.34,1.33,0.4h0.42
	c0.76,0.02,1.36,0.65,1.34,1.41C142.11,132.38,142.11,132.39,142.11,132.39z"/>
<path class="st8" d="M164.87,54.95c-11.22,3.44-17.53,15.32-14.09,26.54c3.44,11.22,15.32,17.53,26.54,14.09
	c11.22-3.44,17.53-15.31,14.09-26.53C187.96,57.83,176.09,51.52,164.87,54.95z M176.62,93.3c-9.96,3.05-20.51-2.56-23.56-12.52
	c-3.05-9.96,2.56-20.51,12.52-23.56c9.96-3.05,20.5,2.55,23.56,12.51C192.17,79.7,186.57,90.24,176.62,93.3z"/>
<path class="st8" d="M152.91,120.86c-0.31,0-0.62,0-0.94-0.07c0-0.18,0-0.36,0-0.55l-0.29,0.52l-1.39,2.59l-1.24,2.27l-0.93,1.73
	l-0.35,0.64l-0.31,0.58l-1.31,2.41l-1.37,2.51l0,0l-3.46,6.33c-1.07,2.01-3.57,2.76-5.58,1.69c-2.01-1.07-2.76-3.57-1.69-5.58l0,0
	l2.03-3.86l1.31-2.48l2.86-5.42l1.58-3.02c-0.29-0.91-0.46-1.86-0.52-2.81c-0.02-0.27-0.12-0.53-0.29-0.74l-1.98,3.77l-3.22,6.1
	l-0.09,0.16l-1.43,2.7l-0.75,1.43l-1.6,2.96c-1.66,3.17-0.45,7.08,2.71,8.77c1.52,0.81,3.3,0.98,4.95,0.47c1.63-0.49,3-1.6,3.81-3.1
	l2.7-4.96l1.46-2.68c-0.07-0.15-0.11-0.32-0.14-0.48c-0.16-0.97,0.48-1.86,1.73-2.48l0.16-0.29l1.29-2.36v-0.06l0,0
	c-0.39-0.17-0.74-0.43-1.01-0.75c0.67-0.41,1.19-1.01,1.49-1.73c0.23-0.5,0.4-1.03,0.51-1.57h0.35l0.86,0.06l1.5-2.75
	C153.85,120.83,153.38,120.85,152.91,120.86z M195.72,67.75c-4.15-13.6-18.55-21.26-32.15-17.11c-13.6,4.15-21.26,18.55-17.11,32.15
	c1.51,4.95,4.49,9.34,8.53,12.58l-2.01,3.67l1.6,0.86l-0.67,1.1l-1.36-0.61l-2.72,4.89c-1.11-0.43-2.36,0.03-2.92,1.07l-0.58,1.11
	l-1.47,2.78c0.33-0.11,0.68-0.13,1.02-0.08c0.18,0,0.67,0.11,1.19,0.97l1.38-2.59l0.53-1l7.78,3.87l-0.3,0.55l-1.61,2.96
	c0.93-0.19,1.87-0.26,2.82-0.19l1.22-2.24c0.05-0.09,0.09-0.19,0.12-0.29c0.39-1,0.03-2.14-0.86-2.73l2.72-4.52l-1.09-0.59
	l-0.62-0.34l0.79-1.31l1.55,0.81l1.88-3.71c13.56,4.27,28.01-3.25,32.29-16.81c1.57-4.97,1.59-10.3,0.06-15.28V67.75z
	 M156.04,108.39l-4.07-2.02c0.24-0.43,0.53-0.94,0.8-1.45c0.28-0.51,0.53-0.97,0.72-1.34c0.86,0.52,2.12,1.24,4.06,2.29
	L156.04,108.39z M155.92,102.23l0.76-1.25l1.16,0.61l-0.8,1.28L155.92,102.23z M160.46,100.3l-4.24-2.26l0.7-1.28
	c1.33,0.87,2.73,1.62,4.19,2.23L160.46,100.3z M177.93,97.61c-12.33,3.76-25.38-3.18-29.14-15.52s3.18-25.38,15.52-29.14
	c12.32-3.76,25.35,3.17,29.13,15.48c3.78,12.33-3.15,25.38-15.47,29.16C177.95,97.59,177.94,97.6,177.93,97.61L177.93,97.61z"/>
<path class="st1" d="M152.85,123.57l-2.16,3.97l0,0c-0.39-0.17-0.74-0.43-1.01-0.75c0.67-0.41,1.19-1.01,1.49-1.73
	c0.23-0.5,0.4-1.03,0.51-1.57h0.35L152.85,123.57z"/>
<path class="st1" d="M157.66,114.73l-3.32,6.13c-0.48,0.03-0.96,0.03-1.44,0c-0.31,0-0.62,0-0.94-0.07c0-0.18,0-0.36,0-0.55l0,0
	l2.87-5.28C155.76,114.75,156.71,114.67,157.66,114.73z"/>
<path class="st1" d="M147.08,111.16L147.08,111.16l-5.19,9.88c-0.29-0.91-0.46-1.86-0.52-2.81c-0.02-0.27-0.12-0.53-0.29-0.74
	l3.81-7.23c0.33-0.11,0.68-0.13,1.02-0.08C146.07,110.21,146.56,110.3,147.08,111.16z"/>
<path class="st9" d="M161.12,98.98l-0.67,1.3l-4.23-2.25l0.7-1.28C158.25,97.62,159.66,98.37,161.12,98.98z"/>
<path class="st1" d="M148.31,124.39c-1.51,0.46-3.14,0.26-4.49-0.55c-0.35-0.24-0.67-0.53-0.93-0.86c-0.4-0.5-0.71-1.06-0.93-1.66
	l0,0c0-0.08-0.06-0.16-0.1-0.26l5.19-9.88c0.05,0.07,0.09,0.14,0.13,0.22c0.08,0.15,0.16,0.31,0.24,0.5
	c0.2,0.49,0.39,0.98,0.55,1.46l0,0c0.19,0.54,0.35,1.07,0.48,1.59c0.03,0.09,0.05,0.18,0.07,0.27l0.05,0.19l0,0
	C149.8,120.24,149.04,124,148.31,124.39z"/>
<path class="st1" d="M154.84,114.92l-2.87,5.28c-0.01-1.47-0.17-2.93-0.46-4.37l0,0c0.9-0.32,1.81-0.58,2.74-0.78L154.84,114.92z"/>
<path class="st2" d="M156.75,111.41l-0.3,0.55l-1.61,2.96l-0.6,0.12c-0.93,0.2-1.84,0.46-2.74,0.78l0,0
	c0.29,1.44,0.44,2.9,0.46,4.37l0,0l-0.29,0.52l-1.39,2.59l-1.24,2.27l-0.93,1.73l-0.35,0.64l-0.31,0.58l-1.31,2.41l-1.37,2.51l0,0
	l-3.46,6.33c-1.07,2.01-3.57,2.76-5.58,1.69c-2.01-1.07-2.76-3.57-1.69-5.58l0,0l2.03-3.86l1.31-2.48l2.86-5.42l1.58-3.02
	c0,0.1,0.06,0.18,0.1,0.26l0,0c0.22,0.6,0.53,1.16,0.93,1.66c0.27,0.33,0.58,0.63,0.93,0.86c1.35,0.81,2.98,1.01,4.49,0.55
	c0.73-0.4,1.5-4.16,0.3-8.99l0,0l-0.05-0.19c-0.02-0.09-0.04-0.18-0.07-0.27c-0.13-0.52-0.29-1.05-0.48-1.59l0,0
	c-0.16-0.48-0.35-0.97-0.55-1.46c-0.09-0.19-0.16-0.35-0.24-0.5c-0.04-0.08-0.08-0.15-0.13-0.22l0,0l1.38-2.59l0.53-1L156.75,111.41
	z"/>
<path class="st9" d="M157.55,105.87l-1.52,2.52l-4.06-2.02l0.8-1.45c0.29-0.52,0.53-0.97,0.72-1.34
	C154.33,104.08,155.6,104.8,157.55,105.87z"/>
<path class="st10" d="M164.25,52.91C151.93,56.7,145,69.76,148.79,82.08c3.78,12.33,16.84,19.25,29.17,15.46
	c12.31-3.78,19.23-16.81,15.48-29.13C189.64,56.09,176.59,49.16,164.25,52.91z M177.32,95.58c-11.22,3.43-23.1-2.88-26.53-14.09
	c-3.43-11.22,2.88-23.1,14.09-26.53c11.22-3.43,23.1,2.87,26.53,14.09C194.83,80.26,188.53,92.13,177.32,95.58z"/>
<circle class="st7" cx="171.09" cy="75.26" r="18.87"/>
<path class="st1" d="M165.86,91.06c-7.98-4.91-10.46-15.35-5.56-23.33c4.05-6.59,12.05-9.6,19.44-7.32
	c-7.98-4.91-18.42-2.42-23.33,5.56c-4.91,7.98-2.42,18.42,5.56,23.33C163.19,90.05,164.5,90.64,165.86,91.06z"/>
<path class="st1" d="M144.87,110.27l-3.81,7.23c-0.28-0.36-0.72-0.56-1.18-0.53c-0.75,0.06-1.32,0.71-1.27,1.47
	c0.07,0.96,0.22,1.9,0.47,2.83l-3.22,6.1c-0.28-1-0.1-2.07,0.49-2.92c1.36-1.47,1.01-3.24,0.73-4.67c-0.28-1.43-0.42-2.43,0.4-3.3
	l0.59-0.63C139.51,114.28,142.61,110.92,144.87,110.27z"/>
<path class="st0" d="M151.97,120.2L151.97,120.2c0,0.19,0,0.37,0,0.55c-0.02,0.92-0.12,1.83-0.32,2.72
	c-0.11,0.54-0.28,1.06-0.51,1.57c-0.3,0.72-0.82,1.32-1.49,1.73c-0.17,0.1-0.34,0.18-0.53,0.23c-0.33,0.1-0.66,0.18-0.99,0.24
	c-0.41,0.07-0.83,0.11-1.25,0.12c-1.63,0.08-3.24-0.37-4.6-1.27c-0.1-0.07-0.22-0.15-0.31-0.22c-0.41-0.31-0.79-0.67-1.12-1.06
	c-0.2-0.24-0.38-0.49-0.55-0.75c-0.55-0.86-0.96-1.81-1.21-2.8c-0.24-0.93-0.4-1.87-0.47-2.83c-0.05-0.76,0.52-1.41,1.27-1.47
	c0.46-0.03,0.9,0.17,1.18,0.53c0.17,0.21,0.28,0.47,0.29,0.74c0.06,0.95,0.23,1.9,0.52,2.81c0,0.1,0.06,0.18,0.1,0.26l0,0
	c0.22,0.6,0.53,1.16,0.93,1.66c0.27,0.33,0.58,0.63,0.93,0.86c1.35,0.81,2.98,1.01,4.49,0.55c0.73-0.4,1.5-4.16,0.3-8.99l0,0
	l-0.05-0.19c-0.02-0.09-0.04-0.18-0.07-0.27c-0.13-0.52-0.29-1.05-0.48-1.59l0,0c-0.16-0.48-0.35-0.97-0.55-1.46
	c-0.09-0.19-0.16-0.35-0.24-0.5c-0.04-0.08-0.08-0.15-0.13-0.22l0,0c-0.52-0.86-1.01-0.94-1.19-0.97c-0.34-0.05-0.69-0.03-1.02,0.08
	c-2.26,0.66-5.35,4.01-6.8,5.57l-0.59,0.63c-0.81,0.86-0.69,1.78-0.4,3.3c0.29,1.52,0.62,3.2-0.73,4.67
	c-0.59,0.85-0.78,1.92-0.49,2.92l0,0l0.05,0.35c0.09,1.12-0.3,2.23-1.08,3.04c-0.25,0.27-0.55,0.5-0.86,0.68l-0.35,0.19
	c-4.06,2.04-8.55,3.05-13.09,2.96c-2.39,0-4.78-0.22-7.13-0.68c-0.37-0.07-0.59-0.13-0.66-0.14c-0.72-0.24-1.11-1.01-0.88-1.74
	c0.21-0.64,0.86-1.03,1.52-0.93c0,0,0.43,0.1,1.14,0.22c1.98,0.33,3.99,0.5,6,0.5c4.2,0.1,8.37-0.85,12.11-2.78
	c0.42-0.24,0.64-0.72,0.55-1.2c-0.4-2.2,0-4.03,1.18-5.29c0.38-0.4,0.31-1,0.06-2.27c-0.31-1.6-0.73-3.78,1.09-5.71l0.57-0.61
	c3.19-3.46,6.87-7.07,10.28-6.49l0,0c0.69,0.12,1.33,0.42,1.87,0.86l0.23,0.21c0.39,0.37,0.72,0.79,0.99,1.25
	c0.2,0.33,0.37,0.67,0.52,1.03c0.33,0.78,0.61,1.56,0.86,2.33c0.12,0.37,0.23,0.75,0.33,1.12c0.14,0.52,0.26,1.03,0.35,1.54l0,0
	C151.81,117.26,151.96,118.73,151.97,120.2z"/>
<path class="st0" d="M161.23,120.59L161.23,120.59c-0.58,0.76-1.32,1.38-2.17,1.82c-1.66,0.83-3.49,1.23-5.34,1.17h-0.26h-0.6
	l-0.86-0.06h-0.35c-0.36,0-0.75-0.09-1.15-0.15l-0.2-0.05c-0.72-0.25-1.1-1.03-0.86-1.75c0.21-0.62,0.84-1.01,1.49-0.92
	c0.25,0.04,0.51,0.08,0.76,0.1h0.28c0.32,0,0.63,0.06,0.94,0.07c0.48,0.03,0.96,0.03,1.44,0l0,0c1.33-0.01,2.64-0.37,3.79-1.05
	l0.09-0.07c0.3-0.21,0.57-0.46,0.8-0.75c0.71-0.97,0.81-2.26,0.25-3.33c-0.35-0.55-0.97-0.88-1.63-0.86c-0.94-0.07-1.89,0-2.82,0.19
	l-0.6,0.12c-0.93,0.2-1.84,0.46-2.74,0.78l0,0c-0.38,0.13-0.73,0.27-1.05,0.4c-0.69,0.3-1.5-0.02-1.79-0.72c0,0,0-0.01,0-0.01
	c0-0.03,0-0.06,0-0.1l0,0l-0.05-0.19c-0.01-0.08-0.01-0.17,0-0.25c0-0.52,0.3-0.99,0.77-1.22h0.07c0.21-0.09,0.72-0.29,1.44-0.54
	c0.97-0.35,1.97-0.64,2.97-0.86c0.52-0.11,1.05-0.2,1.59-0.27c0.35-0.04,0.71-0.07,1.06-0.09c0.86-0.04,1.72,0.04,2.55,0.24
	c1.23,0.29,2.26,1.14,2.78,2.29C162.76,116.5,162.53,118.83,161.23,120.59z"/>
<path class="st1" d="M159.04,118.95c-0.22,0.29-0.49,0.55-0.8,0.75l-0.09,0.07c-1.15,0.68-2.45,1.05-3.79,1.05l0,0l3.32-6.1
	c0.66-0.02,1.27,0.31,1.63,0.86C159.88,116.67,159.77,117.98,159.04,118.95z"/>
<path class="st0" d="M162.82,128.42c-0.52,0.67-1.16,1.24-1.88,1.68c-0.8,0.48-1.68,0.81-2.59,0.97c-0.37,0.07-0.75,0.11-1.12,0.11
	h-0.86c-1.76,0.03-3.53-0.16-5.24-0.58c-0.45-0.12-0.89-0.27-1.31-0.45l-0.18-0.08l-0.23-0.12c-0.74-0.34-1.39-0.85-1.89-1.49
	l-0.2-0.29c-0.17-0.25-0.3-0.53-0.4-0.81c-0.08-0.22-0.14-0.45-0.18-0.68c-0.13-0.74,0.37-1.46,1.11-1.59
	c0.74-0.13,1.46,0.37,1.59,1.11c0.04,0.21,0.13,0.4,0.26,0.56c0.27,0.33,0.62,0.58,1.01,0.75l0,0c0.41,0.19,0.84,0.34,1.28,0.45
	c1.7,0.38,3.45,0.53,5.19,0.45c0.56-0.02,1.12-0.12,1.64-0.32l0.1-0.04c0.7-0.29,1.31-0.75,1.78-1.34c0.5-0.49,0.71-1.2,0.58-1.88
	c-0.43-1.04-1.2-1.9-2.2-2.43c-0.2-0.13-0.41-0.24-0.62-0.35c-0.68-0.32-0.98-1.14-0.66-1.82c0.09-0.19,0.22-0.36,0.39-0.48
	l0.09-0.07c0.4-0.27,0.91-0.31,1.35-0.1c0.58,0.28,1.13,0.61,1.64,0.99c1.29,0.86,2.23,2.14,2.68,3.62
	C164.25,125.7,163.84,127.27,162.82,128.42z"/>
<path class="st1" d="M160.66,126.74c-0.47,0.59-1.08,1.05-1.78,1.34l-0.1,0.04c-0.53,0.2-1.08,0.3-1.64,0.32
	c-1.74,0.08-3.49-0.07-5.19-0.45c-0.44-0.11-0.87-0.26-1.28-0.45l2.16-3.97h0.6h0.26c1.85,0.06,3.69-0.34,5.34-1.17
	c0.99,0.53,1.77,1.39,2.2,2.43C161.37,125.52,161.16,126.24,160.66,126.74z"/>
<path class="st1" d="M157.81,134.53c-0.66,0.95-1.95,1.45-3.82,1.49c-1.52,0.08-3.04-0.22-4.42-0.86c-0.43-0.21-0.83-0.49-1.18-0.81
	c-0.34-0.3-0.61-0.67-0.8-1.09c-0.07-0.15-0.11-0.32-0.14-0.48c-0.16-0.97,0.48-1.86,1.73-2.48c0.13-0.06,0.26-0.12,0.39-0.17
	l0.18,0.08c0.43,0.18,0.87,0.33,1.31,0.45c1.71,0.42,3.48,0.61,5.24,0.58h0.86c0.38-0.01,0.75-0.04,1.12-0.11
	C158.55,132.27,158.38,133.48,157.81,134.53z"/>
<path class="st0" d="M160.07,136.08c-1.19,1.73-3.23,2.59-6.05,2.67h-0.29c-1.74,0.03-3.46-0.32-5.05-1.02
	c-0.43-0.2-0.84-0.43-1.23-0.69c-0.49-0.32-0.94-0.71-1.34-1.14c-0.66-0.7-1.13-1.57-1.35-2.51l0,0c0-0.06,0-0.13,0-0.2
	c-0.3-2.03,0.71-4.04,2.52-5.01c0.16-0.1,0.33-0.2,0.51-0.29c0.48-0.25,0.98-0.45,1.49-0.61c0.48-0.17,1.01-0.05,1.37,0.31l0,0
	c0.16,0.15,0.28,0.34,0.35,0.55c0.23,0.72-0.15,1.49-0.86,1.73l-0.28,0.1l-0.24,0.1c-0.13,0.05-0.26,0.11-0.39,0.17
	c-1.28,0.62-1.92,1.51-1.73,2.48c0.02,0.17,0.07,0.33,0.14,0.48c0.19,0.42,0.46,0.79,0.8,1.09c0.35,0.33,0.75,0.6,1.18,0.81
	c1.38,0.64,2.9,0.94,4.42,0.86c1.88,0,3.16-0.54,3.82-1.49c0.59-1.05,0.77-2.28,0.52-3.46c-0.06-0.42-0.16-0.84-0.29-1.25
	c-0.25-0.68,0.08-1.44,0.74-1.73l0.1-0.04c0.72-0.23,1.49,0.15,1.73,0.86c0.13,0.39,0.23,0.79,0.31,1.19
	C161.23,131.56,161.46,134.1,160.07,136.08z"/>
<path class="st11" d="M29.21,102.14c0.12,0.86,0.21,1.79,0.3,2.67l0.31,2.65c0.22,1.73,0.44,3.46,0.73,5.19
	c0.52,3.37,1.28,6.71,2.26,9.98c0.94,3.14,2.23,6.17,3.83,9.03c1.57,2.77,3.53,5.3,5.8,7.52c2.3,2.22,4.89,4.11,7.7,5.64
	c2.84,1.56,5.88,2.72,9.04,3.46c3.3,0.74,6.67,1.18,10.05,1.33c1.73,0.1,3.46,0.15,5.27,0.19c1.81,0.04,3.55,0.06,5.36,0.15
	c-1.67,0.66-3.38,1.24-5.11,1.73c-1.73,0.51-3.46,0.93-5.29,1.28c-3.66,0.71-7.39,0.92-11.1,0.63c-3.85-0.31-7.61-1.3-11.11-2.92
	c-3.52-1.62-6.73-3.84-9.51-6.54c-1.4-1.37-2.68-2.85-3.82-4.44l-0.86-1.2c-0.13-0.21-0.28-0.4-0.4-0.61l-0.37-0.63
	c-0.5-0.84-0.96-1.71-1.37-2.59c-1.65-3.44-2.77-7.1-3.32-10.87c-0.55-3.65-0.67-7.35-0.36-11.03c0-0.46,0.08-0.86,0.13-1.36
	s0.1-0.86,0.16-1.36c0.12-0.86,0.28-1.79,0.43-2.68c0.16-0.89,0.37-1.77,0.56-2.65C28.68,103.84,28.94,103,29.21,102.14z"/>
</svg>
